<svg xmlns="http://www.w3.org/2000/svg" viewBox="0 0 1200 800">
  <defs>
    <pattern id="filmStrip" patternUnits="userSpaceOnUse" width="120" height="80">
      <rect width="120" height="80" fill="#1a1a1a"/>
      <rect x="10" y="10" width="15" height="15" fill="#333" rx="2"/>
      <rect x="10" y="30" width="15" height="15" fill="#333" rx="2"/>
      <rect x="10" y="50" width="15" height="15" fill="#333" rx="2"/>
      <rect x="95" y="10" width="15" height="15" fill="#333" rx="2"/>
      <rect x="95" y="30" width="15" height="15" fill="#333" rx="2"/>
      <rect x="95" y="50" width="15" height="15" fill="#333" rx="2"/>
      <rect x="35" y="15" width="50" height="50" fill="#2a2a2a" rx="4"/>
    </pattern>
    <radialGradient id="spotlight" cx="50%" cy="30%" r="60%">
      <stop offset="0%" style="stop-color:rgba(255,255,255,0.1);stop-opacity:1" />
      <stop offset="70%" style="stop-color:rgba(255,255,255,0.05);stop-opacity:1" />
      <stop offset="100%" style="stop-color:rgba(255,255,255,0);stop-opacity:0" />
    </radialGradient>
  </defs>
  
  <!-- Background -->
  <rect width="1200" height="800" fill="#0f0f0f"/>
  
  <!-- Film strip pattern -->
  <rect width="1200" height="800" fill="url(#filmStrip)" opacity="0.3"/>
  
  <!-- Spotlight effect -->
  <rect width="1200" height="800" fill="url(#spotlight)"/>
  
  <!-- Cinema projector beam -->
  <polygon points="100,200 200,300 200,500 100,600" fill="rgba(255,215,0,0.1)"/>
  <polygon points="200,300 1100,250 1100,550 200,500" fill="rgba(255,215,0,0.05)"/>
  
  <!-- Film reels -->
  <circle cx="150" cy="150" r="40" fill="none" stroke="rgba(255,215,0,0.2)" stroke-width="3"/>
  <circle cx="150" cy="150" r="25" fill="none" stroke="rgba(255,215,0,0.3)" stroke-width="2"/>
  <circle cx="150" cy="150" r="10" fill="rgba(255,215,0,0.4)"/>
  
  <circle cx="1050" cy="650" r="35" fill="none" stroke="rgba(255,215,0,0.2)" stroke-width="3"/>
  <circle cx="1050" cy="650" r="20" fill="none" stroke="rgba(255,215,0,0.3)" stroke-width="2"/>
  <circle cx="1050" cy="650" r="8" fill="rgba(255,215,0,0.4)"/>
  
  <!-- Scattered film frames -->
  <rect x="300" y="100" width="40" height="30" fill="rgba(255,215,0,0.1)" rx="2" transform="rotate(15 320 115)"/>
  <rect x="800" y="150" width="40" height="30" fill="rgba(255,215,0,0.1)" rx="2" transform="rotate(-20 820 165)"/>
  <rect x="500" y="600" width="40" height="30" fill="rgba(255,215,0,0.1)" rx="2" transform="rotate(25 520 615)"/>
  
  <!-- Subtle grid lines -->
  <defs>
    <pattern id="grid" width="50" height="50" patternUnits="userSpaceOnUse">
      <path d="M 50 0 L 0 0 0 50" fill="none" stroke="rgba(255,255,255,0.02)" stroke-width="1"/>
    </pattern>
  </defs>
  <rect width="1200" height="800" fill="url(#grid)"/>
</svg>
